<svg width="200" height="200" fill="none" xmlns="http://www.w3.org/2000/svg"><g clip-path="url(#clip0_301_32343)"><mask id="a" style="mask-type:luminance" maskUnits="userSpaceOnUse" x="0" y="0" width="200" height="200"><path d="M200 0H0v200h200V0z" fill="#fff"/></mask><g mask="url(#a)"><path fill-rule="evenodd" clip-rule="evenodd" d="M188.941 100A41.9 41.9 0 00200 98.523a42.035 42.035 0 00-8.681-.901h-49.464c-8.17 0-15.794-2.34-22.236-6.389a41.657 41.657 0 0111.658-22.51l31.614-31.614a41.925 41.925 0 006.776-8.864 41.961 41.961 0 00-6.776 5.501l-34.977 34.977a41.66 41.66 0 01-20.24 11.206A41.658 41.658 0 01100 55.767V11.06A41.9 41.9 0 0098.523 0c-.59 2.8-.901 5.705-.901 8.681v49.465c0 8.17-2.34 15.793-6.388 22.235a41.663 41.663 0 01-22.511-11.658L37.109 37.109a41.902 41.902 0 00-8.864-6.776 42.03 42.03 0 005.501 6.776l34.977 34.977a41.659 41.659 0 0111.206 20.24A41.663 41.663 0 0155.767 100H11.06c-3.828 0-7.536.514-11.059 1.477 2.8.59 5.705.901 8.681.901h49.465c8.17 0 15.793 2.341 22.235 6.389a41.665 41.665 0 01-11.658 22.51L37.11 162.891a41.896 41.896 0 00-6.776 8.864 42.083 42.083 0 006.776-5.501l34.977-34.977a41.665 41.665 0 0120.24-11.206A41.667 41.667 0 01100 144.233v44.708c0 3.828.514 7.536 1.477 11.059.59-2.801.901-5.705.901-8.681v-49.465c0-8.17 2.341-15.793 6.389-22.235a41.66 41.66 0 0122.51 11.658l31.614 31.614a41.916 41.916 0 008.864 6.776 42.014 42.014 0 00-5.501-6.776l-34.977-34.977a41.656 41.656 0 01-11.205-20.24A41.657 41.657 0 01144.233 100h44.708z" fill="#4A2CED"/></g></g><defs><clipPath id="clip0_301_32343"><path fill="#fff" d="M0 0h200v200H0z"/></clipPath></defs></svg>