<svg width="40" height="40" fill="none" xmlns="http://www.w3.org/2000/svg"><mask id="a" style="mask-type:luminance" maskUnits="userSpaceOnUse" x="0" y="0" width="40" height="40"><path d="M40 0H0v40h40V0z" fill="#fff"/></mask><g mask="url(#a)"><path fill-rule="evenodd" clip-rule="evenodd" d="M37.788 20c.766 0 1.507-.103 2.212-.295a8.403 8.403 0 00-1.736-.18H28.37a8.332 8.332 0 01-4.447-1.278 8.331 8.331 0 012.331-4.502l6.323-6.323a8.385 8.385 0 001.355-1.773c-.48.313-.934.68-1.355 1.1l-6.995 6.996a8.332 8.332 0 01-4.048 2.24A8.332 8.332 0 0120 11.154V2.212c0-.766-.103-1.507-.295-2.212-.118.56-.18 1.14-.18 1.736v9.893a8.332 8.332 0 01-1.278 4.447 8.332 8.332 0 01-4.502-2.331L7.422 7.422a8.38 8.38 0 00-1.773-1.355c.313.48.68.934 1.1 1.355l6.996 6.995a8.332 8.332 0 012.24 4.048A8.333 8.333 0 0111.154 20H2.212c-.766 0-1.507.103-2.212.295.56.118 1.14.18 1.736.18h9.893a8.33 8.33 0 014.447 1.278 8.333 8.333 0 01-2.331 4.502l-6.323 6.323a8.38 8.38 0 00-1.355 1.773c.48-.313.934-.68 1.355-1.1l6.995-6.996a8.333 8.333 0 014.048-2.24A8.334 8.334 0 0120 28.846v8.941c0 .766.103 1.507.295 2.212.118-.56.18-1.141.18-1.736V28.37a8.33 8.33 0 011.278-4.447 8.332 8.332 0 014.502 2.331l6.323 6.323a8.383 8.383 0 001.773 1.355 8.403 8.403 0 00-1.1-1.355l-6.996-6.995a8.331 8.331 0 01-2.24-4.048A8.331 8.331 0 0128.846 20h8.941z" fill="#474752"/></g></svg>