<svg width="137" height="137" fill="none" xmlns="http://www.w3.org/2000/svg"><path d="M68.5 23.38l6.38 38.74 38.739 6.38-38.739 6.38-6.38 38.74-6.381-38.74-38.74-6.38 38.74-6.38 6.38-38.74z" fill="#2F2F37"/><path fill-rule="evenodd" clip-rule="evenodd" d="M68.5 135.359c36.925 0 66.859-29.934 66.859-66.859S105.425 1.64 68.5 1.64 1.64 31.576 1.64 68.5s29.935 66.859 66.86 66.859zm0 1.641c37.832 0 68.5-30.668 68.5-68.5C137 30.669 106.332 0 68.5 0 30.669 0 0 30.669 0 68.5 0 106.332 30.669 137 68.5 137z" fill="#2F2F37"/></svg>